<svg width="180" height="38" viewBox="0 0 180 38" fill="none" xmlns="http://www.w3.org/2000/svg">
<g filter="url(#filter0_dd_13001_400)">
<rect x="3.1" y="2.1" width="31.8" height="31.8" rx="7.9" fill="white"/>
<rect x="3.1" y="2.1" width="31.8" height="31.8" rx="7.9" fill="url(#paint0_linear_13001_400)"/>
<rect x="3.1" y="2.1" width="31.8" height="31.8" rx="7.9" stroke="#D0D5DD" stroke-width="0.2"/>
<path d="M18.3546 13.1828C22.7105 11.4504 27.4742 12.8185 29.6373 14.9133C30.106 15.3671 30.5041 15.8275 30.845 16.2852C31.0394 15.2107 31.0552 14.1405 30.8681 13.1055C30.1847 9.32649 26.6195 7.18561 23.4233 8.29149C20.2415 9.3924 19.0005 11.5321 19.0005 11.5321C19.0005 11.5321 17.7595 9.3924 14.5777 8.29149C11.3812 7.18561 7.81603 9.32672 7.1328 13.1055C6.62842 15.8944 7.58356 18.9392 9.61033 21.6298C10.0372 21.7732 10.4847 21.8809 10.9586 21.9431C13.7978 22.3163 14.8184 21.557 16.0178 21.0486C16.8142 20.7113 17.4134 21.0942 17.3843 21.3626C17.3392 21.7786 15.7693 22.4895 16.106 22.6388C17.4351 23.2285 19.0718 23.2334 20.3053 22.18C21.838 20.8712 22.4114 21.7659 22.4114 21.7659C22.4114 21.7659 21.6502 23.7076 19.3581 24.6717C17.4457 25.4761 15.4419 25.6743 13.6107 25.4683C15.19 26.5846 17.0035 27.5204 19.0005 28.1883C24.7099 26.2784 28.9276 22.1871 30.4145 17.9096C29.4072 16.9157 28.1716 16.2996 26.6988 16.0763C23.8674 15.6471 22.8322 16.3863 21.6228 16.8708C20.8198 17.1926 20.2285 16.7978 20.263 16.5299C20.3161 16.1148 21.8999 15.4351 21.5661 15.279C20.249 14.6633 18.6125 14.626 17.3585 15.6549C15.8003 16.9332 15.2446 16.0274 15.2446 16.0274C15.2446 16.0274 16.0438 14.1015 18.3546 13.1828ZM17.2709 18.5052H18.3709V17.4052H19.6296V18.5052H20.7296V19.7639H19.6296V20.8639H18.3709V19.7639H17.2709V18.5052Z" fill="url(#paint1_linear_13001_400)"/>
<path d="M17.2709 18.5052H18.3709V17.4052H19.6296V18.5052H20.7295V19.7639H19.6378C21.2597 20.5834 24.2383 21.8027 27.8177 22.3451C28.9956 20.9517 29.8813 19.4428 30.4143 17.9096C29.4069 16.9157 28.1713 16.2996 26.6986 16.0763C23.8672 15.647 22.8319 16.3863 21.6226 16.8708C20.8196 17.1926 20.2282 16.7978 20.2627 16.5299C20.3159 16.1148 21.8997 15.4351 21.5659 15.279C20.2488 14.6633 18.6123 14.626 17.3583 15.6548C15.8 16.9332 15.2443 16.0274 15.2443 16.0274C15.2443 16.0274 16.0438 14.1013 18.3543 13.1823C22.7102 11.4499 27.4739 12.818 29.637 14.9128C30.1057 15.3666 30.5038 15.8271 30.8447 16.2847C31.0392 15.2102 31.055 14.14 30.8679 13.105C30.1844 9.326 26.6192 7.18512 23.423 8.291C20.2412 9.39191 19.0002 11.5316 19.0002 11.5316C19.0002 11.5316 17.7592 9.39191 14.5774 8.291C12.7519 7.65927 10.8067 8.0883 9.34619 9.27521C10.0323 10.7442 10.836 12.1168 13.1254 14.8773C14.9868 17.1222 17.2709 18.5052 17.2709 18.5052Z" fill="url(#paint2_linear_13001_400)"/>
<path opacity="0.31" d="M27.277 9.64954C24.2712 8.13944 21.169 10.4892 20.1851 11.7299C21.882 11.3725 23.3668 11.1892 25.2457 11.5839C28.0252 12.1679 29.0654 13.1715 30.3064 14.6542C30.0871 11.9069 28.3519 10.1896 27.277 9.64954Z" fill="url(#paint3_linear_13001_400)"/>
</g>
<path d="M46.728 28V10.12H49.992V17.92H57.6V10.12H60.888V28H57.6V20.8H49.992V28H46.728ZM70.2576 28.288C68.9136 28.288 67.7376 27.984 66.7296 27.376C65.7216 26.768 64.9376 25.944 64.3776 24.904C63.8176 23.864 63.5376 22.712 63.5376 21.448C63.5376 20.136 63.8176 18.976 64.3776 17.968C64.9536 16.944 65.7296 16.136 66.7056 15.544C67.6976 14.952 68.8016 14.656 70.0176 14.656C71.0416 14.656 71.9376 14.824 72.7056 15.16C73.4896 15.496 74.1536 15.96 74.6976 16.552C75.2416 17.144 75.6576 17.824 75.9456 18.592C76.2336 19.344 76.3776 20.16 76.3776 21.04C76.3776 21.264 76.3616 21.496 76.3296 21.736C76.3136 21.976 76.2736 22.184 76.2096 22.36H66.1296V19.96H74.4336L72.9456 21.088C73.0896 20.352 73.0496 19.696 72.8256 19.12C72.6176 18.544 72.2656 18.088 71.7696 17.752C71.2896 17.416 70.7056 17.248 70.0176 17.248C69.3616 17.248 68.7776 17.416 68.2656 17.752C67.7536 18.072 67.3616 18.552 67.0896 19.192C66.8336 19.816 66.7376 20.576 66.8016 21.472C66.7376 22.272 66.8416 22.984 67.1136 23.608C67.4016 24.216 67.8176 24.688 68.3616 25.024C68.9216 25.36 69.5616 25.528 70.2816 25.528C71.0016 25.528 71.6096 25.376 72.1056 25.072C72.6176 24.768 73.0176 24.36 73.3056 23.848L75.8496 25.096C75.5936 25.72 75.1936 26.272 74.6496 26.752C74.1056 27.232 73.4576 27.608 72.7056 27.88C71.9696 28.152 71.1536 28.288 70.2576 28.288ZM82.674 28.288C81.762 28.288 80.97 28.136 80.298 27.832C79.626 27.528 79.106 27.096 78.738 26.536C78.37 25.96 78.186 25.296 78.186 24.544C78.186 23.824 78.346 23.184 78.666 22.624C78.986 22.048 79.482 21.568 80.154 21.184C80.826 20.8 81.674 20.528 82.698 20.368L86.97 19.672V22.072L83.298 22.696C82.674 22.808 82.21 23.008 81.906 23.296C81.602 23.584 81.45 23.96 81.45 24.424C81.45 24.872 81.618 25.232 81.954 25.504C82.306 25.76 82.738 25.888 83.25 25.888C83.906 25.888 84.482 25.752 84.978 25.48C85.49 25.192 85.882 24.8 86.154 24.304C86.442 23.808 86.586 23.264 86.586 22.672V19.312C86.586 18.752 86.362 18.288 85.914 17.92C85.482 17.536 84.906 17.344 84.186 17.344C83.514 17.344 82.914 17.528 82.386 17.896C81.874 18.248 81.498 18.72 81.258 19.312L78.69 18.064C78.946 17.376 79.346 16.784 79.89 16.288C80.45 15.776 81.106 15.376 81.858 15.088C82.61 14.8 83.426 14.656 84.306 14.656C85.378 14.656 86.322 14.856 87.138 15.256C87.954 15.64 88.586 16.184 89.034 16.888C89.498 17.576 89.73 18.384 89.73 19.312V28H86.754V25.768L87.426 25.72C87.09 26.28 86.69 26.752 86.226 27.136C85.762 27.504 85.234 27.792 84.642 28C84.05 28.192 83.394 28.288 82.674 28.288ZM92.6359 28V9.832H95.7799V28H92.6359ZM104.635 28.144C103.163 28.144 102.019 27.744 101.203 26.944C100.403 26.128 100.003 24.984 100.003 23.512V17.752H97.7468V14.944H97.9868C98.6268 14.944 99.1228 14.776 99.4748 14.44C99.8268 14.104 100.003 13.616 100.003 12.976V11.968H103.147V14.944H106.147V17.752H103.147V23.344C103.147 23.776 103.219 24.144 103.363 24.448C103.523 24.752 103.763 24.984 104.083 25.144C104.419 25.304 104.843 25.384 105.355 25.384C105.467 25.384 105.595 25.376 105.739 25.36C105.899 25.344 106.051 25.328 106.195 25.312V28C105.971 28.032 105.715 28.064 105.427 28.096C105.139 28.128 104.875 28.144 104.635 28.144ZM108.597 28V9.832H111.741V17.512L111.309 17.056C111.613 16.272 112.109 15.68 112.797 15.28C113.501 14.864 114.317 14.656 115.245 14.656C116.205 14.656 117.053 14.864 117.789 15.28C118.541 15.696 119.125 16.28 119.541 17.032C119.957 17.768 120.165 18.624 120.165 19.6V28H117.021V20.344C117.021 19.768 116.909 19.272 116.685 18.856C116.461 18.44 116.149 18.12 115.749 17.896C115.365 17.656 114.909 17.536 114.381 17.536C113.869 17.536 113.413 17.656 113.013 17.896C112.613 18.12 112.301 18.44 112.077 18.856C111.853 19.272 111.741 19.768 111.741 20.344V28H108.597ZM129.471 28.288C128.335 28.288 127.279 28.08 126.303 27.664C125.343 27.248 124.511 26.672 123.807 25.936C123.119 25.184 122.615 24.312 122.295 23.32L125.007 22.144C125.439 23.168 126.063 23.976 126.879 24.568C127.695 25.144 128.615 25.432 129.639 25.432C130.215 25.432 130.711 25.344 131.127 25.168C131.559 24.976 131.887 24.72 132.111 24.4C132.351 24.08 132.471 23.696 132.471 23.248C132.471 22.72 132.311 22.288 131.991 21.952C131.687 21.6 131.223 21.328 130.599 21.136L127.167 20.032C125.775 19.6 124.727 18.952 124.023 18.088C123.319 17.224 122.967 16.208 122.967 15.04C122.967 14.016 123.215 13.112 123.711 12.328C124.223 11.544 124.927 10.936 125.823 10.504C126.735 10.056 127.775 9.832 128.943 9.832C130.015 9.832 130.999 10.024 131.895 10.408C132.791 10.776 133.559 11.296 134.199 11.968C134.855 12.624 135.343 13.4 135.663 14.296L132.975 15.496C132.623 14.6 132.095 13.912 131.391 13.432C130.687 12.936 129.871 12.688 128.943 12.688C128.399 12.688 127.919 12.784 127.503 12.976C127.087 13.152 126.759 13.408 126.519 13.744C126.295 14.064 126.183 14.448 126.183 14.896C126.183 15.392 126.343 15.832 126.663 16.216C126.983 16.584 127.471 16.872 128.127 17.08L131.415 18.112C132.839 18.576 133.903 19.216 134.607 20.032C135.327 20.848 135.687 21.856 135.687 23.056C135.687 24.08 135.423 24.984 134.895 25.768C134.367 26.552 133.639 27.168 132.711 27.616C131.783 28.064 130.703 28.288 129.471 28.288ZM139.946 33.28C139.594 33.28 139.25 33.248 138.914 33.184C138.578 33.136 138.274 33.04 138.002 32.896V30.28C138.21 30.328 138.458 30.376 138.746 30.424C139.05 30.472 139.33 30.496 139.586 30.496C140.306 30.496 140.826 30.328 141.146 29.992C141.482 29.672 141.778 29.24 142.034 28.696L142.898 26.68L142.85 29.32L137.162 14.944H140.546L144.53 25.552H143.33L147.29 14.944H150.698L145.01 29.32C144.674 30.152 144.266 30.864 143.786 31.456C143.306 32.048 142.746 32.496 142.106 32.8C141.482 33.12 140.762 33.28 139.946 33.28ZM152.425 28V14.944H155.377V17.512L155.137 17.056C155.441 16.272 155.937 15.68 156.625 15.28C157.329 14.864 158.145 14.656 159.073 14.656C160.033 14.656 160.881 14.864 161.617 15.28C162.369 15.696 162.953 16.28 163.369 17.032C163.785 17.768 163.993 18.624 163.993 19.6V28H160.849V20.344C160.849 19.768 160.737 19.272 160.513 18.856C160.289 18.44 159.977 18.12 159.577 17.896C159.193 17.656 158.737 17.536 158.209 17.536C157.697 17.536 157.241 17.656 156.841 17.896C156.441 18.12 156.129 18.44 155.905 18.856C155.681 19.272 155.569 19.768 155.569 20.344V28H152.425ZM172.94 28.288C171.644 28.288 170.476 27.992 169.436 27.4C168.412 26.792 167.604 25.976 167.012 24.952C166.42 23.912 166.124 22.744 166.124 21.448C166.124 20.152 166.42 18.992 167.012 17.968C167.604 16.944 168.412 16.136 169.436 15.544C170.476 14.952 171.644 14.656 172.94 14.656C173.868 14.656 174.732 14.824 175.532 15.16C176.332 15.48 177.02 15.928 177.596 16.504C178.188 17.064 178.612 17.736 178.868 18.52L176.108 19.72C175.868 19.064 175.46 18.536 174.884 18.136C174.324 17.736 173.676 17.536 172.94 17.536C172.252 17.536 171.636 17.704 171.092 18.04C170.564 18.376 170.148 18.84 169.844 19.432C169.54 20.024 169.388 20.704 169.388 21.472C169.388 22.24 169.54 22.92 169.844 23.512C170.148 24.104 170.564 24.568 171.092 24.904C171.636 25.24 172.252 25.408 172.94 25.408C173.692 25.408 174.348 25.208 174.908 24.808C175.468 24.408 175.868 23.872 176.108 23.2L178.868 24.448C178.612 25.184 178.196 25.848 177.62 26.44C177.044 27.016 176.356 27.472 175.556 27.808C174.756 28.128 173.884 28.288 172.94 28.288Z" fill="white"/>
<defs>
<filter id="filter0_dd_13001_400" x="0" y="0" width="38" height="38" filterUnits="userSpaceOnUse" color-interpolation-filters="sRGB">
<feFlood flood-opacity="0" result="BackgroundImageFix"/>
<feColorMatrix in="SourceAlpha" type="matrix" values="0 0 0 0 0 0 0 0 0 0 0 0 0 0 0 0 0 0 127 0" result="hardAlpha"/>
<feOffset dy="1"/>
<feGaussianBlur stdDeviation="1"/>
<feColorMatrix type="matrix" values="0 0 0 0 0.0627451 0 0 0 0 0.0941176 0 0 0 0 0.156863 0 0 0 0.06 0"/>
<feBlend mode="normal" in2="BackgroundImageFix" result="effect1_dropShadow_13001_400"/>
<feColorMatrix in="SourceAlpha" type="matrix" values="0 0 0 0 0 0 0 0 0 0 0 0 0 0 0 0 0 0 127 0" result="hardAlpha"/>
<feOffset dy="1"/>
<feGaussianBlur stdDeviation="1.5"/>
<feColorMatrix type="matrix" values="0 0 0 0 0.0627451 0 0 0 0 0.0941176 0 0 0 0 0.156863 0 0 0 0.1 0"/>
<feBlend mode="normal" in2="effect1_dropShadow_13001_400" result="effect2_dropShadow_13001_400"/>
<feBlend mode="normal" in="SourceGraphic" in2="effect2_dropShadow_13001_400" result="shape"/>
</filter>
<linearGradient id="paint0_linear_13001_400" x1="19" y1="2" x2="19" y2="34" gradientUnits="userSpaceOnUse">
<stop stop-color="white"/>
<stop offset="1" stop-color="#D0D5DD"/>
</linearGradient>
<linearGradient id="paint1_linear_13001_400" x1="10.1989" y1="24.2137" x2="27.8347" y2="6.57791" gradientUnits="userSpaceOnUse">
<stop stop-color="#0076C1"/>
<stop offset="0.0737" stop-color="#0B82C6"/>
<stop offset="0.2766" stop-color="#269ED3"/>
<stop offset="0.4546" stop-color="#36AFDA"/>
<stop offset="0.587" stop-color="#3CB5DD"/>
</linearGradient>
<linearGradient id="paint2_linear_13001_400" x1="10.1388" y1="24.2537" x2="27.8274" y2="6.56509" gradientUnits="userSpaceOnUse">
<stop stop-color="#00A482"/>
<stop offset="1" stop-color="#79DD83"/>
</linearGradient>
<linearGradient id="paint3_linear_13001_400" x1="24.8608" y1="13.5073" x2="28.5288" y2="10.1132" gradientUnits="userSpaceOnUse">
<stop stop-color="#00A482"/>
<stop offset="1" stop-color="#79DD83"/>
</linearGradient>
</defs>
</svg>
